<?xml version="1.0" encoding="UTF-8" standalone="no"?>
<!DOCTYPE svg PUBLIC "-//W3C//DTD SVG 1.1//EN" "http://www.w3.org/Graphics/SVG/1.1/DTD/svg11.dtd">
<svg version="1.1" xmlns="http://www.w3.org/2000/svg" xmlns:xlink="http://www.w3.org/1999/xlink" preserveAspectRatio="xMidYMid meet" viewBox="0 0 500 500" width="500" height="500"><defs><path d="M0 0L500 0L500 500L0 500L0 0Z" id="e65H3DObSi"></path><path d="M17.14 89.72L189.48 44.14L192.96 73.68L20.61 119.27L17.14 89.72Z" id="b6DZxcPtat"></path><path d="M19.41 160.09L216.37 108L219.84 137.54L22.88 189.64L19.41 160.09Z" id="deAqnKByY"></path><path d="M73.98 19.61L103.52 16.14L165.27 249.59L135.73 253.06L73.98 19.61Z" id="aeXvnnmce"></path><path d="M268.31 22.41L447.51 22.41L447.51 51.87L268.31 51.87L268.31 22.41Z" id="a1KWPcAse"></path><path d="M421.38 25.86L447.51 51.11L258.61 246.6L232.47 221.35L421.38 25.86Z" id="c3NOY3VyTr"></path><path d="M330.02 161.73L352.29 135.23L459.77 225.57L437.5 252.06L330.02 161.73Z" id="jdWFecFL1"></path><path d="M451.77 11.04L472.6 31.88L457.87 31.77L437.05 10.94L451.77 11.04Z" id="fPwbIOOgh"></path><path d="M474.17 11.04L495 31.88L480.27 31.77L459.44 10.94L474.17 11.04Z" id="baljFrLUA"></path><path d="M213.35 261.46L251.96 261.46L251.96 486.46L213.35 486.46L213.35 261.46Z" id="aHhsqy2bX"></path><path d="M46.52 287.75L73.82 260.46L171.01 357.66L143.71 384.95L46.52 287.75Z" id="bCpttZ0nt"></path><path d="M212.7 261.46L239.87 288.64L152.2 376.31L125.02 349.13L212.7 261.46Z" id="dNtMMLPNG"></path><path d="M328.57 318.69L359.27 329.87L300.97 490.08L270.26 478.9L328.57 318.69Z" id="b5DR2THnck"></path><path d="M346 330.67L373.95 320.49L432.27 480.7L404.32 490.87L346 330.67Z" id="kH5fevQ6n"></path><path d="M307.72 379.31L385 379.31L385 404.38L307.72 404.38L307.72 379.31Z" id="d4zTpcc6sd"></path><path d="M351.22 330L328.11 321.27L351.22 260.75L373.61 321.27L351.22 330Z" id="aQxzBFGpS"></path><path d="M37.63 260.75L73.98 260.75L73.98 485.75L37.63 485.75L37.63 260.75Z" id="a45bZPSq1Z"></path></defs><g><g><g><use xlink:href="#e65H3DObSi" opacity="1" fill="#ff0000" fill-opacity="1"></use></g><g><use xlink:href="#b6DZxcPtat" opacity="1" fill="#000000" fill-opacity="1"></use></g><g><use xlink:href="#deAqnKByY" opacity="1" fill="#000000" fill-opacity="1"></use></g><g><use xlink:href="#aeXvnnmce" opacity="1" fill="#000000" fill-opacity="1"></use></g><g><use xlink:href="#a1KWPcAse" opacity="1" fill="#090909" fill-opacity="1"></use></g><g><use xlink:href="#c3NOY3VyTr" opacity="1" fill="#090909" fill-opacity="1"></use></g><g><use xlink:href="#jdWFecFL1" opacity="1" fill="#090909" fill-opacity="1"></use></g><g><use xlink:href="#fPwbIOOgh" opacity="1" fill="#090909" fill-opacity="1"></use></g><g><use xlink:href="#baljFrLUA" opacity="1" fill="#090909" fill-opacity="1"></use></g><g><use xlink:href="#aHhsqy2bX" opacity="1" fill="#090909" fill-opacity="1"></use></g><g><use xlink:href="#bCpttZ0nt" opacity="1" fill="#090909" fill-opacity="1"></use></g><g><use xlink:href="#dNtMMLPNG" opacity="1" fill="#090909" fill-opacity="1"></use></g><g><use xlink:href="#b5DR2THnck" opacity="1" fill="#090909" fill-opacity="1"></use></g><g><use xlink:href="#kH5fevQ6n" opacity="1" fill="#090909" fill-opacity="1"></use></g><g><use xlink:href="#d4zTpcc6sd" opacity="1" fill="#090909" fill-opacity="1"></use></g><g><use xlink:href="#aQxzBFGpS" opacity="1" fill="#000000" fill-opacity="1"></use><g><use xlink:href="#aQxzBFGpS" opacity="1" fill-opacity="0" stroke="#000000" stroke-width="1" stroke-opacity="1"></use></g></g><g><use xlink:href="#a45bZPSq1Z" opacity="1" fill="#090909" fill-opacity="1"></use></g></g></g></svg>