<?xml version="1.0" encoding="UTF-8" standalone="no"?>
<!DOCTYPE svg PUBLIC "-//W3C//DTD SVG 1.1//EN" "http://www.w3.org/Graphics/SVG/1.1/DTD/svg11.dtd">
<svg version="1.1" xmlns="http://www.w3.org/2000/svg" xmlns:xlink="http://www.w3.org/1999/xlink" preserveAspectRatio="xMidYMid meet" viewBox="0 0 500 500" width="500" height="500"><defs><path d="M0 0L500 0L500 500L0 500L0 0Z" id="aBzqU2aDL"></path><path d="M221.35 261.46L259.96 261.46L259.96 486.46L221.35 486.46L221.35 261.46Z" id="aq6hagc7c"></path><path d="M54.52 287.75L81.82 260.46L179.01 357.66L151.71 384.95L54.52 287.75Z" id="j28HzUxkpO"></path><path d="M220.7 261.46L247.87 288.64L160.2 376.31L133.02 349.13L220.7 261.46Z" id="b1izN2ZevQ"></path><path d="M343.57 318.69L374.27 329.87L315.97 490.08L285.26 478.9L343.57 318.69Z" id="cM58EsXlE"></path><path d="M360.36 329.87L388.31 319.7L446.63 479.9L418.68 490.08L360.36 329.87Z" id="cjfqDHgNW"></path><path d="M322.72 379.31L400 379.31L400 404.38L322.72 404.38L322.72 379.31Z" id="e1Xz32Z2fc"></path><path d="M366.22 330L343.11 321.27L366.22 260.75L388.61 321.27L366.22 330Z" id="af4QkWDsu"></path><path d="M45.63 260.75L81.98 260.75L81.98 485.75L45.63 485.75L45.63 260.75Z" id="a2HCpuIvbY"></path><path d="M65.98 48.56L86.04 48.56L86.04 198.56L65.98 198.56L65.98 48.56Z" id="bMB3yLa5j"></path><path d="M150.63 188.44L134.55 200.3L86.04 134.49L102.12 122.63L150.63 188.44Z" id="ac941jc6M"></path><path d="M139.72 54.77L156.32 65.93L102.64 145.81L86.04 134.65L139.72 54.77Z" id="b9dd5GTgu"></path><path d="M176.38 111.49L196.36 111.49L196.33 196.13L176.35 196.13L176.38 111.49Z" id="c1rZEsdFDN"></path><path d="M176.35 68.91L196.35 68.91L196.35 88.91L176.35 88.91L176.35 68.91Z" id="a18Jqdpavj"></path><path d="M260.27 54.77L360.27 54.77L360.27 74.77L260.27 74.77L260.27 54.77Z" id="d2l0yoLqDq"></path><path d="M259.27 176.13L359.27 176.13L359.27 196.13L259.27 196.13L259.27 176.13Z" id="a1Gi0TBZJ"></path><path d="M259.11 176.13L344.28 62.56L360.28 74.56L275.11 188.13L259.11 176.13Z" id="b1DfL6VG1F"></path><path d="M379.72 111.49L399.7 111.49L399.67 196.13L379.69 196.13L379.72 111.49Z" id="d1nKzxGc57"></path><path d="M433.41 111.49L453.39 111.49L453.37 196.13L433.39 196.13L433.41 111.49Z" id="iLdzUVPmk"></path><path d="M388.67 176.13L443.16 176.13L443.16 196.13L388.67 196.13L388.67 176.13Z" id="aRUzBwOZg"></path></defs><g><g><g><use xlink:href="#aBzqU2aDL" opacity="1" fill="#ff0000" fill-opacity="1"></use></g><g><use xlink:href="#aq6hagc7c" opacity="1" fill="#090909" fill-opacity="1"></use></g><g><use xlink:href="#j28HzUxkpO" opacity="1" fill="#090909" fill-opacity="1"></use></g><g><use xlink:href="#b1izN2ZevQ" opacity="1" fill="#090909" fill-opacity="1"></use></g><g><use xlink:href="#cM58EsXlE" opacity="1" fill="#090909" fill-opacity="1"></use></g><g><use xlink:href="#cjfqDHgNW" opacity="1" fill="#090909" fill-opacity="1"></use></g><g><use xlink:href="#e1Xz32Z2fc" opacity="1" fill="#090909" fill-opacity="1"></use></g><g><use xlink:href="#af4QkWDsu" opacity="1" fill="#000000" fill-opacity="1"></use><g><use xlink:href="#af4QkWDsu" opacity="1" fill-opacity="0" stroke="#000000" stroke-width="1" stroke-opacity="1"></use></g></g><g><use xlink:href="#a2HCpuIvbY" opacity="1" fill="#090909" fill-opacity="1"></use></g><g><use xlink:href="#bMB3yLa5j" opacity="1" fill="#000000" fill-opacity="1"></use></g><g><use xlink:href="#ac941jc6M" opacity="1" fill="#000000" fill-opacity="1"></use></g><g><use xlink:href="#b9dd5GTgu" opacity="1" fill="#000000" fill-opacity="1"></use></g><g><use xlink:href="#c1rZEsdFDN" opacity="1" fill="#000000" fill-opacity="1"></use></g><g><use xlink:href="#a18Jqdpavj" opacity="1" fill="#0f0c0c" fill-opacity="1"></use></g><g><use xlink:href="#d2l0yoLqDq" opacity="1" fill="#000000" fill-opacity="1"></use></g><g><use xlink:href="#a1Gi0TBZJ" opacity="1" fill="#000000" fill-opacity="1"></use></g><g><use xlink:href="#b1DfL6VG1F" opacity="1" fill="#000000" fill-opacity="1"></use></g><g><use xlink:href="#d1nKzxGc57" opacity="1" fill="#000000" fill-opacity="1"></use></g><g><use xlink:href="#iLdzUVPmk" opacity="1" fill="#000000" fill-opacity="1"></use></g><g><use xlink:href="#aRUzBwOZg" opacity="1" fill="#000000" fill-opacity="1"></use></g></g></g></svg>